<svg xmlns="http://www.w3.org/2000/svg" xmlns:xlink="http://www.w3.org/1999/xlink" xmlns:serif="http://www.serif.com/" viewBox="0 0 32 40" version="1.1" xml:space="preserve" style="" x="0px" y="0px" fill-rule="evenodd" clip-rule="evenodd" fill="#032df1" stroke-linejoin="round" stroke-miterlimit="2"><path d="M31,2c0,-0.552 -0.448,-1 -1,-1l-28,0c-0.552,0 -1,0.448 -1,1l0,28c0,0.552 0.448,1 1,1l28,0c0.552,0 1,-0.448 1,-1l0,-28Zm-2,1l0,26c0,0 -26,0 -26,0c-0,0 0,-26 0,-26l26,-0Zm-2,23c-0.552,0 -1,0.448 -1,1c0,0.552 0.448,1 1,1c0.552,0 1,-0.448 1,-1c0,-0.552 -0.448,-1 -1,-1Zm-22,0c-0.552,0 -1,0.448 -1,1c-0,0.552 0.448,1 1,1c0.552,0 1,-0.448 1,-1c-0,-0.552 -0.448,-1 -1,-1Zm11,-21c-6.025,0 -10.917,4.892 -10.917,10.917c-0,6.025 4.892,10.917 10.917,10.917c6.025,0 10.917,-4.892 10.917,-10.917c0,-6.025 -4.892,-10.917 -10.917,-10.917Zm-0.008,12.926c-0.66,1.506 -1.237,4.079 0.532,6.893c2.42,-0.14 4.583,-1.248 6.107,-2.942c-3.498,-0.335 -5.572,-2.423 -6.639,-3.951Zm-1.736,-1.012c-1.634,0.182 -4.15,0.969 -5.703,3.907c1.272,1.926 3.27,3.33 5.603,3.822c-1.462,-3.198 -0.69,-6.04 0.1,-7.729Zm10.223,-3.763c-2.039,2.865 -4.886,3.618 -6.743,3.778c0.974,1.324 2.914,3.11 6.236,2.986c0.604,-1.203 0.945,-2.561 0.945,-3.998c0,-0.966 -0.154,-1.895 -0.438,-2.766Zm-10.215,1.754c-0.974,-1.323 -2.914,-3.11 -6.236,-2.985c-0.604,1.202 -0.945,2.56 -0.945,3.997c-0,0.966 0.154,1.896 0.438,2.766c2.039,-2.865 4.886,-3.617 6.743,-3.778Zm3.58,-7.714c1.462,3.198 0.69,6.04 -0.1,7.729c1.634,-0.182 4.15,-0.969 5.703,-3.907c-1.272,-1.926 -3.27,-3.33 -5.603,-3.822Zm-2.368,-0.176c-2.42,0.141 -4.583,1.248 -6.107,2.942c3.498,0.335 5.572,2.423 6.639,3.951c0.66,-1.506 1.237,-4.078 -0.532,-6.893Zm-10.476,-3.015c-0.552,-0 -1,0.448 -1,1c-0,0.552 0.448,1 1,1c0.552,-0 1,-0.448 1,-1c-0,-0.552 -0.448,-1 -1,-1Zm22,-0c-0.552,-0 -1,0.448 -1,1c0,0.552 0.448,1 1,1c0.552,-0 1,-0.448 1,-1c0,-0.552 -0.448,-1 -1,-1Z"/></svg>