<!-- pc case by Muhammad Shabraiz from <a href="https://thenounproject.com/browse/icons/term/pc-case/" target="_blank" title="pc case Icons">Noun Project</a> (CC BY 3.0) -->
<svg xmlns="http://www.w3.org/2000/svg" xmlns:xlink="http://www.w3.org/1999/xlink" xml:space="preserve" version="1.1" style="shape-rendering:geometricPrecision;text-rendering:geometricPrecision;image-rendering:optimizeQuality;" viewBox="0 0 512 640" x="0px" y="0px" fill-rule="evenodd" clip-rule="evenodd"><defs><style type="text/css">

    .fil0 {fill:black}
   
  </style></defs><g><g><g><path class="fil0" d="M341 297c-4,0 -7,-3 -7,-7 0,-4 3,-7 7,-7 30,0 54,-24 54,-54 0,-30 -24,-55 -54,-55 -4,0 -7,-3 -7,-7 0,-4 3,-7 7,-7 37,0 68,31 68,69 0,38 -31,68 -68,68z"/></g><g><path class="fil0" d="M355 374l-14 0c-4,0 -7,-3 -7,-7 0,-4 3,-7 7,-7l8 0 8 -37c1,-3 3,-5 6,-6 8,-2 18,-5 25,-10 3,-1 5,-1 8,0l32 21 12 -12 -21 -32c-1,-2 -1,-5 0,-7 5,-9 9,-18 11,-27 1,-2 3,-4 6,-5l37 -7 0 -17 -38 -9c-2,-1 -4,-2 -5,-5 -2,-9 -6,-17 -11,-26 -1,-3 -1,-5 0,-8l21 -32 -12 -11 -32 20c-3,2 -6,2 -8,0 -7,-4 -17,-8 -26,-10 -2,0 -4,-3 -5,-5l-8 -38 -8 0c-4,0 -7,-3 -7,-7 0,-4 3,-7 7,-7l14 0c3,0 6,2 7,6l8 38c8,2 15,5 22,9l33 -21c3,-2 7,-1 9,1l20 19c2,2 3,6 1,9l-22 33c4,8 7,15 10,22l39 9c3,1 5,4 5,7l0 28c0,3 -2,6 -6,7l-39 8c-2,7 -5,14 -9,22l22 33c2,3 1,7 -1,9l-20 20c-2,2 -6,3 -9,1l-33 -22c-7,4 -15,7 -22,9l-8 39c-1,3 -4,5 -7,5z"/></g><g><path class="fil0" d="M341 460l-309 0c-4,0 -7,-3 -7,-7l0 -446c0,-4 3,-7 7,-7l309 0c4,0 7,3 7,7l0 446c0,4 -3,7 -7,7zm-302 -14l295 0 0 -432 -295 0 0 432z"/></g><g><path class="fil0" d="M307 512l-39 0c-3,0 -6,-2 -7,-6l-10 -52c-1,-3 2,-7 6,-8 3,-1 7,2 8,6l9 46 27 0 9 -46c1,-4 4,-7 8,-6 4,1 7,5 6,8l-10 52c-1,4 -4,6 -7,6z"/></g><g><path class="fil0" d="M105 512l-39 0c-3,0 -6,-2 -7,-6l-10 -52c-1,-3 2,-7 6,-8 3,-1 7,2 8,6l9 46 27 0 9 -46c1,-4 4,-7 8,-6 4,1 7,5 6,8l-10 52c-1,4 -4,6 -7,6z"/></g><g><path class="fil0" d="M270 60l-167 0c-1,0 -3,0 -4,-1l-71 -46c-3,-2 -4,-6 -2,-10 2,-3 6,-4 10,-2l69 45 163 0 69 -45c3,-2 8,-1 10,2 2,3 1,8 -2,10l-71 46c-1,1 -3,1 -4,1z"/></g><g><path class="fil0" d="M341 460c-1,0 -3,0 -4,-1l-69 -46 -163 0 -69 46c-3,2 -8,1 -10,-2 -2,-3 -1,-8 2,-10l71 -47c1,-1 3,-1 4,-1l167 0c1,0 3,0 4,1l71 47c3,2 4,7 2,10 -2,2 -4,3 -6,3z"/></g><g><path class="fil0" d="M187 182c-15,0 -27,-12 -27,-27 0,-15 12,-27 27,-27 15,0 27,12 27,27 0,15 -12,27 -27,27zm0 -40c-7,0 -13,6 -13,13 0,7 6,13 13,13 7,0 13,-6 13,-13 0,-7 -6,-13 -13,-13z"/></g><g><path class="fil0" d="M188 142c-1,0 -2,0 -3,-1 -4,-1 -5,-6 -3,-9 1,-3 0,-11 -6,-20 -2,-3 -1,-7 2,-10 3,-2 7,-1 10,2 8,12 11,26 6,34 -1,3 -3,4 -6,4z"/></g><g><path class="fil0" d="M187 229c-41,0 -74,-33 -74,-74 0,-40 33,-73 74,-73 19,0 38,8 51,22 14,14 22,32 22,51 0,41 -33,74 -73,74zm0 -133c-33,0 -60,27 -60,59 0,33 27,60 60,60 32,0 59,-27 59,-60 0,-32 -27,-59 -59,-59z"/></g><g><path class="fil0" d="M205 153c-4,0 -7,-3 -7,-7 0,-4 3,-7 7,-7 4,0 10,-5 13,-15 2,-3 6,-5 10,-3 3,1 5,5 3,9 -6,14 -16,23 -26,23z"/></g><g><path class="fil0" d="M226 182c-12,0 -24,-4 -29,-12 -2,-3 -1,-8 2,-10 3,-2 8,-1 10,2 2,4 11,7 20,6 4,0 8,3 8,6 0,4 -3,8 -6,8 -2,0 -3,0 -5,0z"/></g><g><path class="fil0" d="M191 210c-2,0 -4,-1 -6,-3 -8,-12 -11,-25 -6,-35 1,-3 5,-5 9,-3 3,1 5,5 3,9 -1,4 0,12 6,21 2,3 1,7 -2,10 -1,1 -3,1 -4,1z"/></g><g><path class="fil0" d="M148 190c-1,0 -2,0 -3,-1 -3,-1 -5,-5 -3,-9 5,-12 16,-21 26,-23 4,0 7,2 8,6 0,4 -2,7 -6,8 -5,1 -12,6 -16,15 -1,3 -3,4 -6,4z"/></g><g><path class="fil0" d="M170 151c-2,0 -5,-1 -6,-3 -2,-4 -9,-7 -20,-5 -4,1 -7,-2 -8,-6 -1,-4 2,-7 6,-8 15,-2 28,2 34,11 2,3 1,8 -2,10 -1,1 -3,1 -4,1z"/></g><g><path class="fil0" d="M187 331c-15,0 -27,-11 -27,-26 0,-15 12,-27 27,-27 15,0 27,12 27,27 0,15 -12,26 -27,26zm0 -39c-8,0 -13,5 -13,13 0,7 6,12 13,12 7,0 13,-5 13,-12 0,-8 -5,-13 -13,-13z"/></g><g><path class="fil0" d="M188 292c-1,0 -2,0 -3,-1 -3,-1 -5,-5 -4,-9 2,-4 1,-12 -5,-21 -2,-3 -1,-7 2,-10 3,-2 7,-1 10,2 8,12 10,25 6,35 -1,2 -3,4 -6,4z"/></g><g><path class="fil0" d="M187 378c-41,0 -74,-33 -74,-73 0,-41 33,-74 74,-74 40,0 73,33 73,74 0,19 -8,38 -22,51 -13,14 -32,22 -51,22zm0 -133c-33,0 -60,27 -60,60 0,33 27,59 60,59 32,0 59,-27 59,-59 0,-33 -27,-60 -59,-60z"/></g><g><path class="fil0" d="M205 303c-3,0 -6,-2 -7,-6 0,-4 2,-7 6,-8 4,0 10,-5 15,-15 1,-3 5,-5 9,-3 3,1 5,5 3,9 -5,13 -15,22 -25,23 0,0 -1,0 -1,0z"/></g><g><path class="fil0" d="M225 331c-12,0 -23,-5 -28,-11 -2,-3 -1,-7 2,-9 3,-3 7,-2 9,1 3,2 11,7 21,5 4,0 7,2 8,6 0,4 -2,7 -6,8 -2,0 -4,0 -6,0z"/></g><g><path class="fil0" d="M191 359c-2,0 -4,-1 -6,-3 -8,-12 -11,-25 -6,-35 1,-3 5,-5 9,-3 3,1 5,5 3,9 -1,4 0,12 6,21 2,3 1,7 -2,10 -1,1 -3,1 -4,1z"/></g><g><path class="fil0" d="M148 339c-1,0 -2,0 -3,-1 -3,-1 -5,-5 -3,-9 5,-12 16,-21 26,-23 4,0 7,2 8,6 0,4 -2,7 -6,8 -5,1 -12,6 -16,15 -1,3 -3,4 -6,4z"/></g><g><path class="fil0" d="M170 300c-2,0 -4,-1 -6,-3 -2,-3 -9,-7 -20,-5 -4,1 -7,-2 -8,-6 -1,-4 2,-7 6,-8 15,-2 28,4 33,11 3,3 2,7 -1,9 -1,2 -3,2 -4,2z"/></g><g><path class="fil0" d="M270 413c-4,0 -7,-3 -7,-7l0 -353c0,-4 3,-7 7,-7 4,0 7,3 7,7l0 353c0,4 -3,7 -7,7z"/></g><g><path class="fil0" d="M103 413c-4,0 -7,-3 -7,-7l0 -353c0,-4 3,-7 7,-7 4,0 7,3 7,7l0 353c0,4 -3,7 -7,7z"/></g><g><path class="fil0" d="M68 413c-4,0 -7,-3 -7,-7l0 -353c0,-4 3,-7 7,-7 4,0 7,3 7,7l0 353c0,4 -3,7 -7,7z"/></g><g><path class="fil0" d="M305 413c-4,0 -7,-3 -7,-7l0 -353c0,-4 3,-7 7,-7 4,0 7,3 7,7l0 353c0,4 -3,7 -7,7z"/></g></g></g><text x="0" y="527" fill="#000000" font-size="5px" font-weight="bold" font-family="'Helvetica Neue', Helvetica, Arial-Unicode, Arial, Sans-serif">Created by Muhammad Shabraiz</text><text x="0" y="532" fill="#000000" font-size="5px" font-weight="bold" font-family="'Helvetica Neue', Helvetica, Arial-Unicode, Arial, Sans-serif">from the Noun Project</text></svg>