<!-- pc cooler by 프리니 from <a href="https://thenounproject.com/browse/icons/term/pc-cooler/" target="_blank" title="pc cooler Icons">Noun Project</a> (CC BY 3.0) -->
<svg xmlns="http://www.w3.org/2000/svg" xmlns:xlink="http://www.w3.org/1999/xlink" version="1.1" x="0px" y="0px" viewBox="0 0 100 125" enable-background="new 0 0 100 100" xml:space="preserve"><path d="M37.1772461,88.7119141V24.625l49.4956055-14.4238281l-1.0820312,61.0234375L37.1772461,88.7119141z M38.1772461,25.375  v61.9130859l46.425293-16.7705078l1.046875-58.9765625L38.1772461,25.375z"/><polygon points="37.1347656,88.7216797 28.9545898,83.9335938 28.2700195,21.331543 76.765625,7.7416992 86.6181641,10.1430664   86.3818359,11.1147461 76.7832031,8.7749023 29.2788086,22.0874023 29.9487305,83.3574219 37.6396484,87.8583984 "/><rect x="32.7260551" y="18.6090012" transform="matrix(0.3466826 -0.9379825 0.9379825 0.3466826 -0.1993214 46.4233017)" width="0.9995464" height="9.4914694"/><path d="M57.5439453,80.0537109c-1.7548828,0-3.4960938-0.2597656-5.1982422-0.8017578  c-5.9248047-1.8876953-10.4648438-6.8574219-12.7841797-13.9951172c-2.2998047-7.078125-2.1396484-15.4545898,0.4511719-23.5864258  s7.3061523-15.0571289,13.2773438-19.5004883c6.0205078-4.4794922,12.5996094-5.9072266,18.5224609-4.0200195  c12.1669922,3.8769531,17.7001953,20.7358398,12.3339844,37.581543l0,0  C79.5302734,70.2207031,68.3291016,80.0537109,57.5439453,80.0537109z M66.5654297,18.3393555  c-4.203125,0-8.5693359,1.5751953-12.6787109,4.6333008c-5.8046875,4.3188477-10.3935547,11.0673828-12.9208984,19.0014648  c-2.5283203,7.934082-2.6889648,16.0932617-0.453125,22.9741211c2.2167969,6.8222656,6.5268555,11.5634766,12.1357422,13.3505859  c11.6464844,3.7119141,25.3447266-6.5537109,30.5449219-22.8701172l0,0  c5.1992188-16.3208008-0.0429688-32.6166992-11.6835938-36.3256836  C69.9052734,18.5917969,68.2480469,18.3393555,66.5654297,18.3393555z"/><path d="M60.3310547,61.0478516c-0.7021484,0-1.4013672-0.1035156-2.0830078-0.3212891  c-4.8339844-1.5410156-7.0478516-8.1884766-4.9355469-14.8188477c1.0136719-3.1835938,2.8632812-5.8969727,5.2070312-7.6416016  c2.3945312-1.78125,5.0195312-2.3461914,7.390625-1.590332c4.8349609,1.5405273,7.0488281,8.1879883,4.9365234,14.8183594l0,0  C69.0322266,57.1894531,64.6064453,61.0478516,60.3310547,61.0478516z M63.8037109,37.3505859  c-1.5488281,0-3.1630859,0.5839844-4.6865234,1.7177734c-2.1777344,1.6206055-3.9003906,4.1572266-4.8515625,7.1430664  c-1.9453125,6.1049805-0.0224609,12.1889648,4.2851562,13.5620117c4.3154297,1.3720703,9.3974609-2.4765625,11.3427734-8.5820312  c1.9453125-6.105957,0.0224609-12.1899414-4.2861328-13.5625C65.0224609,37.4428711,64.4179688,37.3505859,63.8037109,37.3505859z"/><polygon points="29.2290039,80.5263672 12.5,73.9208984 12.5,19.0043945 12.8696289,18.9042969 61.125,5.894043   70.5810547,9.5786133 70.2177734,10.5102539 61.0683594,6.9448242 13.5,19.7700195 13.5,73.2412109 29.5961914,79.5966797 "/><rect x="20.4083843" y="13.9913235" transform="matrix(0.3646204 -0.9311562 0.9311562 0.3646204 -7.6517076 33.754837)" width="0.9996368" height="16.9858589"/><rect x="20.4084988" y="16.3135777" transform="matrix(0.3646703 -0.9311367 0.9311367 0.3646703 -9.8147717 35.2287903)" width="0.9994095" height="16.9861259"/><rect x="20.4084988" y="18.6363316" transform="matrix(0.3646703 -0.9311367 0.9311367 0.3646703 -11.9775724 36.7045059)" width="0.9994095" height="16.9861259"/><rect x="20.4083843" y="20.9590969" transform="matrix(0.3646204 -0.9311562 0.9311562 0.3646204 -14.1397934 38.1820183)" width="0.9996368" height="16.9858589"/><rect x="20.4084988" y="23.060648" transform="matrix(0.3646703 -0.9311367 0.9311367 0.3646703 -16.0972157 39.5154037)" width="0.9994095" height="16.9861259"/><rect x="20.4084988" y="25.3834019" transform="matrix(0.3646703 -0.9311367 0.9311367 0.3646703 -18.2600174 40.9911194)" width="0.9994095" height="16.9861259"/><rect x="20.4083843" y="27.7061672" transform="matrix(0.3646204 -0.9311562 0.9311562 0.3646204 -20.422369 42.4689713)" width="0.9996368" height="16.9858589"/><rect x="20.4084988" y="30.0284214" transform="matrix(0.3646703 -0.9311367 0.9311367 0.3646703 -22.585165 43.9422379)" width="0.9994095" height="16.9861259"/><rect x="20.4083843" y="32.1895638" transform="matrix(0.3646204 -0.9311562 0.9311562 0.3646204 -24.5971146 45.3176308)" width="0.9996368" height="16.9858589"/><rect x="20.4084988" y="34.5118179" transform="matrix(0.3646703 -0.9311367 0.9311367 0.3646703 -26.7598228 46.7906761)" width="0.9994095" height="16.9861259"/><rect x="20.4084988" y="36.8345718" transform="matrix(0.3646703 -0.9311367 0.9311367 0.3646703 -28.9226246 48.2663879)" width="0.9994095" height="16.9861259"/><rect x="20.4082718" y="39.1574173" transform="matrix(0.3646454 -0.9311464 0.9311464 0.3646454 -31.0853691 49.7434959)" width="0.9998642" height="16.9859486"/><rect x="20.4082718" y="41.2590446" transform="matrix(0.3647201 -0.9311172 0.9311172 0.3647201 -33.0425644 51.0745544)" width="0.9998642" height="16.9863052"/><rect x="20.4082718" y="43.5816422" transform="matrix(0.3646952 -0.931127 0.931127 0.3646952 -35.2050819 52.5515022)" width="0.9998642" height="16.9861259"/><rect x="20.4081573" y="45.9040756" transform="matrix(0.3646703 -0.9311367 0.9311367 0.3646703 -37.3675308 54.0284843)" width="1.0000916" height="16.9860382"/><rect x="20.4080429" y="48.226841" transform="matrix(0.3646204 -0.9311562 0.9311562 0.3646204 -39.5302811 55.5073586)" width="1.000319" height="16.9857712"/><rect x="20.838707" y="50.2623062" transform="matrix(0.3646703 -0.9311367 0.9311367 0.3646703 -41.1520653 57.1984367)" width="1.000319" height="16.9861259"/><rect x="20.838707" y="52.5845718" transform="matrix(0.3646703 -0.9311367 0.9311367 0.3646703 -43.314415 58.6738396)" width="1.000319" height="16.9861259"/><rect x="20.838707" y="54.907505" transform="matrix(0.3646204 -0.9311562 0.9311562 0.3646204 -45.4773903 60.1531296)" width="1.000319" height="16.9857712"/><rect x="20.838707" y="57.2300797" transform="matrix(0.3646703 -0.9311367 0.9311367 0.3646703 -47.6400146 61.625267)" width="1.000319" height="16.9861259"/><rect x="20.838707" y="59.3316422" transform="matrix(0.3646703 -0.9311367 0.9311367 0.3646703 -49.596859 62.960453)" width="1.000319" height="16.9861259"/><rect x="20.838707" y="61.6545753" transform="matrix(0.3646204 -0.9311562 0.9311562 0.3646204 -51.759964 64.4400787)" width="1.000319" height="16.9857712"/><rect x="20.838707" y="63.97715" transform="matrix(0.3646703 -0.9311367 0.9311367 0.3646703 -53.9224625 65.9118805)" width="1.000319" height="16.9861259"/><rect x="20.838707" y="66.2994156" transform="matrix(0.3646703 -0.9311367 0.9311367 0.3646703 -56.0848083 67.3872833)" width="1.000319" height="16.9861259"/><path d="M44.5952148,94.3007812c-0.4355469,0-0.8510742-0.0410156-1.2041016-0.1083984  c-1.6450195-0.3125-2.6992188-1.2822266-3.1489258-1.6962891c-1.6132812-1.4833984-2.2431641-3.3242188-2.487793-4.6074219  l-0.0795898-0.4189453l3.4799805-1.2578125l0.1157227,0.5673828c0.0541992,0.2646484,0.5761719,2.6103516,2.2519531,3.4873047  c0.5390625,0.2832031,1.0473633,0.5488281,1.6030273,0.4365234c0.1552734-0.03125,0.2788086-0.0830078,0.3955078-0.1308594  c0.2602539-0.1054688,0.5854492-0.2382812,1.0429688-0.1621094c0.1010742,0.015625,0.996582,0.1826172,1.3447266,0.96875  c0.2993164,0.6757812-0.0102539,1.3535156-0.1123047,1.5458984C47.246582,93.9628906,45.8413086,94.3007812,44.5952148,94.3007812z   M38.8266602,88.1162109c0.2670898,1.09375,0.8447266,2.4960938,2.0922852,3.6435547  c0.4204102,0.3867188,1.2944336,1.1904297,2.6582031,1.4501953c1.2880859,0.2451172,2.9370117,0,3.3359375-0.7539062  c0.0214844-0.0410156,0.2036133-0.3974609,0.081543-0.6728516c-0.1347656-0.3037109-0.5864258-0.3857422-0.5908203-0.3867188  c-0.1757812-0.0273438-0.2817383,0.0117188-0.5068359,0.1025391c-0.1689453,0.0683594-0.3491211,0.1396484-0.5722656,0.1845703  c-0.9008789,0.1816406-1.6582031-0.2128906-2.2661133-0.5302734c-1.6162109-0.8466797-2.3427734-2.6494141-2.6269531-3.6162109  L38.8266602,88.1162109z"/><path d="M39.9121094,92.1191406c-1.503418-0.7138672-2.9912109-1.4990234-4.421875-2.3330078  c-4.0561523-2.3632812-6.7353516-3.9238281-8.1357422-6.8955078c-0.5454102-1.15625-0.8588867-2.4306641-0.9316406-3.7861328  l0.9990234-0.0527344c0.0654297,1.2255859,0.347168,2.3740234,0.8369141,3.4130859  c1.2138672,2.5751953,3.3671875,3.9130859,7.7348633,6.4580078c1.4067383,0.8193359,2.8691406,1.5908203,4.347168,2.2919922  L39.9121094,92.1191406z"/><path d="M37.5795898,90.890625c-1.152832-0.0390625-2.2783203-0.2324219-3.3457031-0.5761719  c-1.4370117-0.4619141-2.409668-1.078125-5.4770508-3.46875c-4.4223633-3.4462891-5.0102539-4.1845703-5.4536133-4.9921875  c-0.7299805-1.3310547-1.137207-2.8320312-1.2099609-4.4619141l0.9990234-0.0449219  c0.065918,1.4765625,0.4316406,2.8310547,1.0878906,4.0263672c0.3583984,0.6533203,0.940918,1.3720703,5.1914062,4.6835938  c2.9526367,2.3017578,3.8706055,2.8886719,5.1689453,3.3066406c0.9785156,0.3144531,2.012207,0.4921875,3.0722656,0.5273438  L37.5795898,90.890625z"/><polygon points="50.5,94.5546875 47.1611328,93.1503906 47.5488281,92.2285156 49.5,93.0488281 49.5,88.0019531   59.2626953,92.3896484 72.8867188,86.5488281 72.8867188,85.7128906 59.5742188,80.4902344 59.9394531,79.5585938   73.8867188,85.03125 73.8867188,87.2089844 59.2529297,93.4814453 50.5,89.546875 "/><polygon points="59.1494141,91.6416016 45.7041016,85.4794922 46.1210938,84.5712891 59.1748047,90.5537109 73.2001953,84.9082031   73.5732422,85.8359375 "/><rect x="58.7102432" y="91.0964127" transform="matrix(0.998647 -0.0520018 0.0520018 0.998647 -4.7049179 3.2035244)" width="0.9994391" height="1.8403807"/><rect x="63.4998512" y="79.3558044" transform="matrix(0.2909285 -0.9567448 0.9567448 0.2909285 -29.6653748 119.6846466)" width="4.8245177" height="1.0002995"/><rect x="61.7250061" y="79.4091034" transform="matrix(0.2968291 -0.9549306 0.9549306 0.2968291 -31.9856396 116.3807449)" width="2.6134653" height="1.0001545"/><rect x="49.9276123" y="92.3906403" transform="matrix(0.9316744 -0.3632944 0.3632944 0.9316744 -30.105154 25.7089996)" width="6.7370634" height="0.9999638"/><path d="M68.7353516,39.6132812l-2.2675781-1.6796875l0.0292969-0.2832031c0.390625-3.7978516,0.1083984-7.5-0.8164062-10.7050781  c-0.4238281-1.4716797-1.5498047-5.3803711-3.2099609-6.1352539c-0.3730469-0.1669922-1.2822266-0.5742188-1.2607422-1.309082  c0.0205078-0.6777344,0.8076172-1.0117188,1.1435547-1.1547852c1.5927734-0.6777344,4.6582031-0.5693359,6.9501953-0.3603516  l0.5068359,0.0463867l-0.0556641,0.5068359c-0.3408203,3.0717773-0.6005859,6.1884766-0.7724609,9.2631836  c-0.1992188,3.5839844-0.2841797,7.2207031-0.2548828,10.809082L68.7353516,39.6132812z M67.5195312,37.46875l0.203125,0.1499023  c-0.0078125-3.2836914,0.0800781-6.5996094,0.2617188-9.8720703c0.1630859-2.9228516,0.4052734-5.8837891,0.7207031-8.8081055  c-2.8212891-0.2260742-4.9267578-0.1103516-5.9609375,0.328125c-0.2910156,0.1240234-0.4296875,0.2114258-0.4951172,0.2661133  c0.0693359,0.0673828,0.2304688,0.1855469,0.5996094,0.3505859c2.1162109,0.9619141,3.2490234,4.8950195,3.7929688,6.7851562  C67.578125,29.9150391,67.8808594,33.6435547,67.5195312,37.46875z"/><path d="M62.7363281,37.40625l-0.1484375-0.2558594c-0.9980469-1.722168-3.2158203-4.8173828-6.8613281-6.1987305  c-1.0166016-0.3852539-2.4052734-0.9121094-4.1259766-0.6196289c-1.2680664,0.2148438-2.1865234,0.7905273-2.7939453,1.171875  c-0.5161133,0.3227539-1.003418,0.628418-1.3896484,0.2329102c-0.0854492-0.0874023-0.1870117-0.2431641-0.1845703-0.4897461  c0.0112305-1.0083008,2.2856445-3.8452148,4.3857422-5.8955078c1.5380859-1.5,3.2363281-2.8457031,5.0488281-3.9990234  l0.4726562-0.3007812l7.9375,16.3032227L62.7363281,37.40625z M52.5996094,29.2475586  c1.4511719,0,2.6376953,0.4492188,3.4804688,0.7685547c3.7597656,1.4243164,6.0927734,4.503418,7.2216797,6.3774414  l0.1933594-0.0043945l-6.7617188-13.887207c-1.578125,1.0463867-3.0625,2.2436523-4.4160156,3.5654297  c-1.7456055,1.703125-3.0498047,3.3706055-3.6748047,4.3623047c0.6455078-0.3881836,1.5800781-0.878418,2.7900391-1.0839844  C51.8378906,29.2773438,52.2275391,29.2475586,52.5996094,29.2475586z"/><path d="M39.9760742,51.9013672c-0.0727539,0-0.1499023-0.0126953-0.2324219-0.0410156  c-0.1259766-0.0419922-0.3022461-0.1455078-0.4189453-0.3945312c-0.5561523-1.1914062,0.7299805-6.9272461,2.6464844-11.8032227  c1.9135742-4.8671875,2.8740234-7.3105469,5.2827148-8.3476562c3.5532227-1.5302734,8.8154297,0.8696289,13.4052734,6.1123047  l0.3857422,0.440918l-2.1611328,1.359375l-0.1503906-0.0029297c-5.1660156-0.1206055-9.2993164,1.0917969-12.3188477,3.5805664  c-2.8427734,2.34375-4.2456055,5.425293-5.0834961,7.2666016C40.8125,51.2109375,40.4980469,51.9013672,39.9760742,51.9013672z   M49.5595703,31.8637695c-0.6899414,0-1.331543,0.1206055-1.9101562,0.3696289  c-2.0258789,0.8725586-2.9355469,3.1860352-4.7475586,7.7954102c-1.6811523,4.2773438-2.5869141,8.3486328-2.7158203,10.1396484  c0.0776367-0.1660156,0.1577148-0.3422852,0.2348633-0.5112305c0.8740234-1.9199219,2.3364258-5.1328125,5.3579102-7.6235352  c3.1796875-2.621582,7.4975586-3.9047852,12.8256836-3.8120117l0.9111328-0.5732422  C56.171875,33.984375,52.4501953,31.8637695,49.5595703,31.8637695z"/><path d="M42.5009766,69.3740234c-0.2890625,0-0.5834961-0.140625-0.8764648-0.4199219  c-1.4916992-1.421875-3.3994141-6.9746094-2.9941406-12.4423828c0.159668-2.1494141,0.6611328-4.2373047,1.4907227-6.206543  c0.9150391-2.1694336,2.6166992-6.206543,6.8476562-8.3325195c3.6293945-1.8237305,7.296875-1.3359375,9.1611328-0.8837891  l0.6425781,0.1557617l-1.9726562,3.4921875l-0.1015625,0.0664062c-3.7319336,2.4511719-6.5419922,5.4604492-8.3510742,8.9438477  c-2.456543,4.7275391-2.6289062,9.4804688-2.7319336,12.3203125c-0.074707,2.0576172-0.1162109,3.1904297-1.0058594,3.2998047  C42.5732422,69.3720703,42.5371094,69.3740234,42.5009766,69.3740234z M52.6464844,41.6704102  c-1.5751953,0-3.4106445,0.2822266-5.2285156,1.1958008c-3.9018555,1.9604492-5.449707,5.6328125-6.375,7.8266602  c-0.7875977,1.8696289-1.2636719,3.8520508-1.4155273,5.8930664c-0.4477539,6.0410156,1.9223633,11.1992188,2.7924805,11.7460938  c0.1254883-0.3623047,0.1625977-1.3857422,0.1958008-2.3007812c0.105957-2.9238281,0.2841797-7.8173828,2.84375-12.7451172  c1.8725586-3.6049805,4.7617188-6.7172852,8.5883789-9.2519531l1.1943359-2.1147461  C54.5273438,41.7827148,53.6386719,41.6704102,52.6464844,41.6704102z"/><path d="M54.0136719,78.4570312c-2.0029297,0-5.8598633-2.0556641-8.3295898-4.453125  c-1.1391602-1.1054688-1.9638672-2.2558594-2.4506836-3.4179688c-0.5966797-1.4277344-0.7485352-2.8642578-0.5810547-5.4882812  c0.2158203-3.3886719,0.4023438-6.3154297,1.9199219-9.8808594c0.9755859-2.2939453,1.8974609-4.4609375,4.2016602-6.1074219  c1.3017578-0.9301758,2.8100586-1.5400391,4.4838867-1.8125l0.6455078-0.1049805l-0.4091797,3.9145508l-0.0654297,0.0996094  c-2.7875977,4.3251953-4.0019531,8.5585938-3.6083984,12.5839844c0.4257812,4.3535156,2.5976562,7.6660156,4.1845703,10.0849609  c1.2705078,1.9384766,2.1103516,3.2197266,1.2998047,4.1074219c-0.2714844,0.2978516-0.6777344,0.4570312-1.2070312,0.4726562  C54.0703125,78.4560547,54.0419922,78.4570312,54.0136719,78.4570312z M52.7705078,48.4101562  c-1.2626953,0.2861328-2.4091797,0.7939453-3.4155273,1.5126953c-2.0751953,1.4833984-2.9033203,3.4306641-3.862793,5.6855469  c-1.4501953,3.4082031-1.6230469,6.1201172-1.8417969,9.5537109c-0.1777344,2.7763672,0.0507812,3.9492188,0.5058594,5.0380859  c0.434082,1.0361328,1.1826172,2.0751953,2.2241211,3.0869141C48.652832,75.4921875,52.2529297,77.4570312,54,77.4570312  c0.0234375,0,0.0458984,0,0.0673828-0.0009766c0.2412109-0.0078125,0.4189453-0.0595703,0.4990234-0.1474609  c0.2871094-0.3154297-0.6083984-1.6806641-1.3984375-2.8847656c-1.5498047-2.3642578-3.8930664-5.9375-4.3427734-10.5361328  c-0.4130859-4.2236328,0.831543-8.6376953,3.6982422-13.1225586L52.7705078,48.4101562z"/><path d="M57.6660156,77.5263672c-0.4306641,0-0.8408203-0.0537109-1.2568359-0.1757812  c-3.2099609-0.9355469-4.6796875-4.5058594-6.1020508-7.9580078c-0.9467773-2.2998047-1.4697266-4.5742188-1.5541992-6.7617188  c-0.0473633-1.2275391-0.0961914-2.4970703,0.3930664-3.9980469c0.8149414-2.4990234,2.5864258-4.09375,3.9282227-4.9921875  l0.4697266-0.3134766l2.4921875,5.0068359c0.515625,4.0839844,1.9482422,7.1542969,4.2558594,9.125  c2.3125,1.9726562,5.0742188,2.5029297,7.0898438,2.890625c1.7265625,0.3310547,2.9736328,0.5703125,3.0830078,1.6308594  c0.2431641,2.3554688-7.0908203,4.3642578-9.3447266,4.9238281C59.671875,77.2646484,58.6191406,77.5263672,57.6660156,77.5263672z   M53.1679688,54.8007812c-1.1289062,0.8466797-2.4345703,2.1894531-3.0708008,4.1425781  c-0.434082,1.3300781-0.3911133,2.4560547-0.3452148,3.6484375c0.0800781,2.0693359,0.578125,4.2294922,1.4794922,6.4199219  c1.3935547,3.3828125,2.7099609,6.5771484,5.4570312,7.3789062c1.0390625,0.3056641,2.0351562,0.0791016,4.1904297-0.4570312  c4.6689453-1.1591797,8.6835938-2.9580078,8.5917969-3.8496094c-0.0332031-0.3212891-1.2773438-0.5605469-2.2773438-0.7529297  c-2.1259766-0.4082031-5.0361328-0.9667969-7.5498047-3.1123047c-2.4873047-2.1220703-4.03125-5.3769531-4.5888672-9.6738281  L53.1679688,54.8007812z"/><path d="M66.1044922,69.7724609c-0.1621094,0-0.3251953-0.0048828-0.4912109-0.015625  c-2.3066406-0.1474609-3.96875-1.3183594-4.5146484-1.7021484c-3.7509766-2.6435547-4.3730469-7.0517578-4.4736328-8.3398438  l-0.0722656-0.9199219l0.8095703,0.4423828c0.7324219,0.3994141,1.8974609,0.8603516,3.3603516,0.7978516  c0.6757812-0.03125,1.34375-0.171875,1.9853516-0.4208984l0.1367188-0.0537109l0.1425781,0.0292969  c3.2783203,0.6630859,6.4052734,0.5849609,9.2958984-0.2324219c2.8574219-0.8076172,4.9238281-2.1689453,6.2910156-3.0693359  c1.1982422-0.7910156,1.9238281-1.2685547,2.4560547-0.7392578c0.1132812,0.1123047,0.2470703,0.3193359,0.2392578,0.6640625  c-0.0341797,1.5371094-3.2626953,5.8408203-6.7724609,9.0283203C72.0429688,67.4707031,69.5078125,69.7724609,66.1044922,69.7724609  z M57.7294922,60.5117188c0.2753906,1.6865234,1.1552734,4.7587891,3.9453125,6.7246094  c0.5410156,0.3808594,1.9775391,1.3925781,4.0029297,1.5224609c3.2158203,0.203125,5.7304688-2.0625,8.1474609-4.2578125  c3.5205078-3.1972656,6.078125-6.8984375,6.4111328-8.0703125c-0.2841797,0.1464844-0.7167969,0.4316406-1.1123047,0.6923828  c-1.4179688,0.9345703-3.5625,2.3476562-6.5693359,3.1972656c-3.0019531,0.8496094-6.2382812,0.9423828-9.6240234,0.2783203  c-0.7001953,0.2558594-1.4277344,0.4023438-2.1630859,0.4345703C59.5771484,61.0898438,58.53125,60.8310547,57.7294922,60.5117188z"/><path d="M67.0615234,56.5136719l0.7246094-1.0449219c0.5957031-0.8583984,1.1083984-1.7753906,1.5244141-2.7275391  c0.21875-0.5019531,0.4150391-1.0234375,0.5830078-1.5507812l0.0537109-0.1669922l0.1455078-0.0966797  c3.1220703-2.078125,5.7880859-4.5854492,7.9257812-7.4511719c1.3261719-1.7792969,2.2978516-3.4941406,3.0068359-4.7460938  c1.0195312-1.8022461,1.5332031-2.7075195,2.3144531-2.4658203c0.1523438,0.046875,0.3671875,0.1674805,0.5273438,0.4746094  c0.5341797,1.0288086,0.2666016,4.1152344-0.5849609,6.7387695c-1.4296875,4.4047852-4.3388672,6.9887695-5.4335938,7.9614258  c-3.3564453,2.9804688-7.0429688,4.2568359-9.5449219,4.8037109L67.0615234,56.5136719z M70.7919922,51.6621094  c-0.1660156,0.5019531-0.3554688,0.9990234-0.5654297,1.4794922c-0.2714844,0.6230469-0.5830078,1.2324219-0.9306641,1.8222656  c2.2792969-0.6435547,5.1972656-1.8828125,7.8886719-4.2734375c1.0390625-0.9228516,3.8007812-3.3754883,5.1464844-7.5219727  c0.8203125-2.5268555,0.9375-5.0546875,0.7158203-5.8144531c-0.2802734,0.3286133-0.7382812,1.1386719-1.1513672,1.8681641  c-0.7226562,1.2749023-1.7109375,3.0214844-3.0761719,4.8510742C76.6474609,46.9868164,73.9472656,49.5390625,70.7919922,51.6621094  z"/><path d="M70.7255859,45.7089844l-0.2705078-1.5712891c-0.0673828-0.3920898-0.1572266-0.7871094-0.2666016-1.1738281  c-0.109375-0.3837891-0.2314453-0.7333984-0.3554688-1.0473633l-0.078125-0.1962891l0.0869141-0.1923828  c0.8945312-1.9980469,3.1435547-7.1040039,4.6884766-11.3442383c0.5244141-1.4379883,0.7988281-2.3291016,0.9414062-3.5019531  c0.1699219-1.402832,0.0673828-2.5166016-0.0078125-3.3305664c-0.0859375-0.9228516-0.1474609-1.5898438,0.4335938-1.8422852  c0.1542969-0.0654297,0.4091797-0.1152344,0.7587891,0.0366211c0.875,0.3798828,1.9697266,1.8237305,2.4921875,3.2866211  c0.5400391,1.5107422,0.4755859,3.4702148-0.1865234,5.6669922c-0.6826172,2.2729492-1.6835938,3.7382812-2.6513672,5.1557617  l-0.3154297,0.4638672c-1.6914062,2.5029297-3.2373047,5.2431641-4.59375,8.1459961L70.7255859,45.7089844z M70.8388672,41.746582  c0.0947266,0.2519531,0.1865234,0.5229492,0.2724609,0.8125c1.2255859-2.4765625,2.5859375-4.8261719,4.0556641-7  l0.3183594-0.4677734c0.9238281-1.3549805,1.8808594-2.7553711,2.5195312-4.8803711  c0.5996094-1.9907227,0.6689453-3.734375,0.2021484-5.0429688c-0.4736328-1.3251953-1.3476562-2.3227539-1.8007812-2.6279297  c0.0048828,0.1943359,0.0292969,0.4677734,0.0527344,0.7192383c0.0751953,0.8100586,0.1884766,2.0341797,0.0048828,3.5424805  c-0.1542969,1.2700195-0.4433594,2.2128906-0.9941406,3.7246094C73.9609375,34.6679688,71.7890625,39.6201172,70.8388672,41.746582z  "/><text x="0" y="115" fill="#000000" font-size="5px" font-weight="bold" font-family="'Helvetica Neue', Helvetica, Arial-Unicode, Arial, Sans-serif">Created by 프리니</text><text x="0" y="120" fill="#000000" font-size="5px" font-weight="bold" font-family="'Helvetica Neue', Helvetica, Arial-Unicode, Arial, Sans-serif">from the Noun Project</text></svg>