<!-- chip by Gregor Cresnar from <a href="https://thenounproject.com/browse/icons/term/chip/" target="_blank" title="chip Icons">Noun Project</a> (CC BY 3.0) -->
<svg xmlns="http://www.w3.org/2000/svg" data-name="Layer 1" viewBox="0 0 100 125" x="0px" y="0px"><title>1Artboard 84</title><path d="M74,32a6,6,0,0,0-6-6H62V18H54v8H46V18H38v8H32a6,6,0,0,0-6,6v6H18v8h8v8H18v8h8v6a6,6,0,0,0,6,6h6v8h8V74h8v8h8V74h6a6,6,0,0,0,6-6V62h8V54H74V46h8V38H74ZM66,66H34V34H66Zm-8-8H42V42H58Z"/><text x="0" y="115" fill="#000000" font-size="5px" font-weight="bold" font-family="'Helvetica Neue', Helvetica, Arial-Unicode, Arial, Sans-serif">Created by Gregor Cresnar</text><text x="0" y="120" fill="#000000" font-size="5px" font-weight="bold" font-family="'Helvetica Neue', Helvetica, Arial-Unicode, Arial, Sans-serif">from the Noun Project</text></svg>